# xmcd
#
# Track frame offsets:
#	180
#	17232
#	27868
#	42791
#	54179
#	67650
#	80611
#	92985
#	104395
#	116210
#	129375
#	143916
#	156033
#	170288
#	182227
#	195774
#	209594
#	222973
#
# Disc length: 3135 seconds
#
# Revision: 1
# Processed by: cddbd v1.5.2PL0 Copyright (c) Steve Scherf et al.
# Submitted via: audiograbber 1.83.01
#
DISCID=f30c3d12
DTITLE=Various Artist - Great Voices Of Entertainment -CD 07
DYEAR=1900
DGENRE=Swing
TTITLE0=Fred Astaire - Top Hat, White Tie And Tails
TTITLE1=Fred Astaire - Fascinatin' Rhythm
TTITLE2=Bing Crosby - Did You Ever See A Dream Walking
TTITLE3=Bing Crosby - Birds Of The Feather
TTITLE4=Judy Garland - Singin' In The Rain
TTITLE5=Judy Garland - I'm Nobodys Baby
TTITLE6=Frank Sinatra - That Old Black Magic
TTITLE7=Frank Sinatra - Oh, What A Beautiful Morning
TTITLE8=Four Knights - Lead Me To That Rock
TTITLE9=Doris Day - My Number One Dream Come True
TTITLE10=Doris Day - The Whole World Is Singing My Song
TTITLE11=Mel Tormé - Night And Day
TTITLE12=Mel Tormé - Ballerina
TTITLE13=Four Knights - Shadrack
TTITLE14=Dean Martin - Muskrat Ramble
TTITLE15=Perry Como - If
TTITLE16=Dean Martin - When You're Smiling
TTITLE17=Perry Como - Don't Let The Stars Get In Your Eyes
EXTD=CD 7 von 10
EXTT0=
EXTT1=
EXTT2=
EXTT3=
EXTT4=
EXTT5=
EXTT6=
EXTT7=
EXTT8=
EXTT9=
EXTT10=
EXTT11=
EXTT12=
EXTT13=
EXTT14=
EXTT15=
EXTT16=
EXTT17=
PLAYORDER=
